<svg width="2395" height="3251" viewBox="0 0 2395 3251" fill="none" xmlns="http://www.w3.org/2000/svg">
<path d="M1134.7 131.505C1482.82 446.85 1640.3 716.644 1696.66 1123.09C1713.23 1382.37 1675.99 1537.07 1623.72 1697.71C1424.8 2254.82 915.886 2529.87 483.228 2519.36C282.925 2514.49 128.364 2503.85 -1 2460.91V3127C26 3142 202.5 3234.5 471 3251C882.002 3251 1283.04 3112.85 1593.88 2878.5C1869.16 2670.97 2102.79 2380.96 2235.41 2049.85C2351.45 1781.81 2394.55 1523.11 2394.55 1233.46C2387.91 1023.23 2375.36 886.579 2314.98 672.846C2237.76 399.544 2144.23 248.884 2021.57 64.9328C2004.92 42.3885 1988.56 20.6153 1972.3 -0.5H-1V293.5C-0.000366211 447.5 -1 529.5 -0.000366211 604.888C214.577 751.364 493.184 722.179 710.332 616.785C897.651 525.868 1018.66 311.952 1134.7 131.505Z" fill="#E8EAE9"/>
<path d="M2281.99 1019.6C2315.14 804.107 2233.92 457.222 2207.4 385.392C2167.26 296.753 2105.23 187.423 2046.63 101.577C2017.83 59.3884 1992.59 25.4025 1972.51 -0.5H1419.87C1516.34 87.9978 1641.38 209.856 1680.32 275.02C1716.77 336.019 1793.57 460.186 1842.75 578.106C1888.16 686.98 1905.74 774.324 1919 825.13C1945.06 924.991 1947.18 1245.6 1919 1394.51C1889.26 1551.67 1807.72 1708.11 1751.59 1800.96C1680.32 1918.88 1549.37 2035.72 1522.85 2060.25C1496.33 2084.78 1400.2 2163.62 1426.72 2188.14C1456.55 2198.65 1700.21 2032.22 1763.19 1984.92C1826.18 1937.62 1986.96 1800.96 2066.52 1659.06C2098.94 1601.22 2170.3 1461.74 2219.06 1313.92C2252.16 1213.59 2268.18 1109.42 2281.26 1024.33L2281.99 1019.6Z" fill="#D8D8D8"/>
<path d="M617.351 2836.76C514.569 2806.97 375.317 2751.79 196.278 2647.51C135.644 2612.2 69.6563 2573.25 0 2525.73V2895.25C47.2588 2916.81 95.8721 2936.83 144.751 2954.16C276.703 3000.97 396.972 3027.54 479.621 3041.13C681.1 3074.28 741.878 3061.05 819.464 3061.05C860.231 3061.05 964.938 3049.5 1059.98 3036.52C1162.64 3022.5 1262.2 2997.91 1290.41 2989.21C1369.98 2964.68 1471.1 2910.36 1476.08 2898.09C1481.05 2885.82 1484.37 2866.55 1398.16 2877.06C1325.07 2885.98 1209.18 2910.36 1050.03 2910.36C890.884 2910.36 720.133 2866.55 617.351 2836.76Z" fill="#D2D4D1"/>
<path d="M0 0.00297975H337.5L830.5 0.00282716L928.148 0.00267638C1017.68 0.0024947 1133.02 0.00226063 1203 0.00266238C1179.5 52 1155.4 102 1136 133.003C1024 312 943 453 811.5 555.5C581.5 720.5 261.5 773.003 0.000274658 612.003L0 0.00297975Z" fill="#3A455B"/>
<path d="M207.592 220.062C222.379 233.799 229.068 245.551 231.462 263.256C232.166 274.551 230.584 281.29 228.364 288.288C219.914 312.556 198.297 324.537 179.919 324.079C167.459 323.769 157.986 319.483 151.119 314.464C137.177 303.703 134.079 293.782 130.981 285.617C127.531 274.703 125.77 259.822 126.474 242.193C127.557 232.878 128.554 224.623 131.051 216.704C133.053 210.356 136.843 202.947 138.656 198.999C139.637 196.862 140.205 196.328 139.501 194.802C137.952 194.038 137.389 194.954 134.713 196.709C125.348 203.73 118.518 211.133 111.828 221.97C103.801 235.249 99.0129 251.444 99.0129 268.412C98.7312 283.861 103.101 299.201 109.153 311.029C114.478 321.439 121.916 330.242 130.541 337.497C144.2 348.986 161.357 355.826 179.989 355.826C197.448 355.826 213.893 349.932 227.096 339.724C238.79 330.684 248.714 318.05 254.347 303.627C259.276 291.951 261.107 280.682 261.107 268.064C260.825 258.906 260.292 252.954 257.727 243.643C254.447 231.738 250.474 225.175 245.263 217.162C238.206 207.362 232.378 200.907 219.633 192.894C207.944 185.545 189.847 180.912 176.75 181.904C166.861 183.07 158.654 184.652 151.824 195.183C149.848 198.229 148.514 199.915 146.895 207.394C146.564 214.136 146.953 221.263 149.218 227.007C157.316 247.535 176.187 247.86 189.566 241.201C197.522 237.241 202.663 227.922 207.592 220.062Z" fill="url(#paint0_linear_2410_23)"/>
<path d="M228.11 198.754C226.913 199.593 218.555 205.979 214.939 209.973C217.123 211.805 228.251 221.956 230.786 226.306C232.335 228.963 235.599 234.373 237.689 239.51C239.618 244.253 240.365 248.058 240.928 250.271C242.036 254.621 242.126 268.588 240.928 275.076C239.665 281.922 236.2 288.737 233.815 292.782C230.786 297.919 225.222 303.009 224.095 304.078C222.969 305.146 218.884 308.581 220.01 309.649C221.278 310.107 231.632 302.857 234.308 300.796C236.984 298.735 243.816 292.782 247.197 286.6C248.574 284.081 251.607 278.005 253.679 271.565C255.085 267.194 255.766 262.656 256.322 258.949L256.353 258.743C257.761 249.355 254.31 234.244 253.183 231.114C251.477 227.253 248.842 222.49 246.352 218.75C243.963 215.163 242.151 212.937 241.421 212.034C238.094 207.913 235.646 204.707 228.11 198.754Z" fill="url(#paint1_linear_2410_23)"/>
<path d="M138.685 194.597C136.643 194.597 135.164 197.269 132.91 200.17C130.005 203.911 126.854 208.401 122.347 217.197C117.182 227.275 118.755 223.863 114.459 235.215C112.206 241.171 110.516 247.431 110.516 258.044C110.516 267.308 110.27 270.871 112.98 282.553C115.868 294.998 118.614 300.419 122.91 308.588C127.206 316.758 136.925 325.538 140.868 328.974C144.812 332.41 155.018 339.205 165.511 343.023C171.117 345.062 176.226 346.22 179.737 346.812C188.296 348.256 190.878 347.68 194.174 347.68C195.906 347.68 200.354 347.177 204.391 346.611C208.753 346 212.982 344.929 214.18 344.55C217.561 343.481 221.856 341.114 222.068 340.579C222.279 340.045 222.42 339.205 218.758 339.663C215.653 340.052 210.729 341.114 203.969 341.114C197.208 341.114 189.954 339.205 185.588 337.907C181.222 336.609 175.306 334.205 167.7 329.661C160.799 325.538 152.264 320.281 143.474 309.734C136.22 301.03 132.629 292.326 129.178 279.346C128.21 275.705 127.558 271.406 126.995 265.908C126.94 265.375 126.82 263.922 126.784 263.389C126.431 259.342 126.251 254.866 126.22 251.554C126.155 248.264 126.292 245.602 126.292 244.53C126.292 241.4 127.277 233.307 128.685 225.977C129.319 222.455 130.166 219.576 130.516 218.342C131.361 215.364 133.474 209.485 135.798 204.828C136.784 202.614 137.629 200.933 137.981 200.17L137.981 200.17C138.409 199.358 139.108 198.032 139.601 196.811C139.913 195.639 139.693 194.597 138.685 194.597Z" fill="url(#paint2_linear_2410_23)"/>
<ellipse cx="132.163" cy="165.775" rx="20.0926" ry="21.7745" fill="#0169B8"/>
<path d="M286.441 368.555L284.641 357.575C288.601 356.495 293.461 355.055 296.341 350.735C299.401 346.055 300.481 339.575 300.481 323.015V245.435H314.341V326.975C314.341 345.335 311.641 353.795 305.521 360.275C300.301 365.675 291.841 368.375 286.441 368.555ZM307.321 230.495H307.141C302.281 230.495 298.501 226.535 298.501 220.775C298.501 215.015 302.461 211.055 307.501 211.055C312.721 211.055 316.141 215.015 316.141 220.775C316.321 226.535 312.721 230.495 307.321 230.495ZM335.126 332.555V267.935C335.126 257.675 334.586 252.455 334.406 245.435H346.466L347.186 256.235H347.546C351.326 249.215 357.986 243.995 367.166 243.995C375.266 243.995 382.106 247.955 385.346 257.315H385.706C388.046 252.995 391.106 249.575 394.346 247.415C397.766 245.075 401.906 243.995 406.406 243.995C418.106 243.995 427.286 252.635 427.286 274.775V332.555H413.606V278.015C413.606 266.675 411.986 255.695 401.366 255.695C395.606 255.695 390.566 260.555 388.586 268.655C388.226 270.995 388.046 273.695 388.046 276.575V332.555H374.366V275.495C374.366 265.775 372.566 255.695 362.306 255.695C356.726 255.695 350.966 260.555 349.346 269.735C348.986 272.075 348.806 274.595 348.806 277.295V332.555H335.126ZM472.888 328.595L476.308 318.155C479.368 320.135 484.768 322.655 490.348 322.655C498.268 322.655 503.128 317.795 503.128 310.055C503.128 303.395 500.788 298.895 491.968 292.955C480.628 285.575 474.508 278.195 474.508 268.115C474.508 254.075 484.948 243.995 498.448 243.995C505.288 243.995 510.508 246.335 514.108 248.495L510.328 258.935C507.088 256.775 503.308 255.155 498.808 255.155C491.248 255.155 487.468 260.555 487.468 266.135C487.468 272.075 489.628 275.315 498.268 281.255C508.348 287.735 516.268 295.655 516.268 307.715C516.268 325.175 504.388 333.635 490.168 333.635C483.688 333.635 476.668 331.655 472.888 328.595ZM582.7 290.255H542.2C542.38 316.895 552.82 322.655 562.9 322.655C568.84 322.655 573.88 321.215 577.3 319.235L579.46 329.495C574.6 332.195 567.22 333.635 560.38 333.635C539.5 333.635 528.7 316.535 528.7 289.895C528.7 261.635 540.58 243.995 558.04 243.995C575.86 243.995 582.88 262.715 582.88 282.515C582.88 285.755 582.88 288.095 582.7 290.255ZM542.38 279.995H569.56C569.92 262.535 563.26 254.795 556.6 254.795C547.6 254.795 542.92 268.115 542.38 279.995ZM599.49 332.555V267.935C599.49 260.555 598.95 251.915 598.77 245.435H611.19L611.91 259.115H612.27C615.15 250.835 622.53 243.995 630.63 243.995C631.71 243.995 632.61 244.175 633.51 244.175V258.395C632.61 258.215 631.71 258.215 630.63 258.215C621.81 258.215 615.33 266.315 613.89 276.395C613.53 278.735 613.35 281.435 613.35 284.315V332.555H599.49ZM646.119 332.555V207.995H659.979V332.555H646.119ZM694.826 332.555H680.966V245.435H694.826V332.555ZM687.626 230.495H687.446C682.586 230.495 678.986 226.535 678.986 220.775C678.986 215.015 682.766 211.055 687.626 211.055C693.026 211.055 696.626 215.015 696.626 220.775C696.626 226.535 693.026 230.495 687.626 230.495ZM715.812 332.555V267.935C715.812 257.675 715.272 252.455 715.092 245.435H727.152L727.872 256.235H728.232C732.012 249.215 738.672 243.995 747.852 243.995C755.952 243.995 762.792 247.955 766.032 257.315H766.392C768.732 252.995 771.792 249.575 775.032 247.415C778.452 245.075 782.592 243.995 787.092 243.995C798.792 243.995 807.972 252.635 807.972 274.775V332.555H794.292V278.015C794.292 266.675 792.672 255.695 782.052 255.695C776.292 255.695 771.252 260.555 769.272 268.655C768.912 270.995 768.732 273.695 768.732 276.575V332.555H755.052V275.495C755.052 265.775 753.252 255.695 742.992 255.695C737.412 255.695 731.652 260.555 730.032 269.735C729.672 272.075 729.492 274.595 729.492 277.295V332.555H715.812ZM829.053 367.115V272.615C829.053 259.295 828.513 251.555 828.333 245.435H840.753L841.473 256.595H841.833C846.513 247.235 853.353 243.995 860.193 243.995C875.313 243.995 885.393 260.195 885.393 288.815C885.393 321.035 872.073 333.995 858.393 333.995C850.293 333.995 845.613 328.775 843.273 323.915H842.913V367.115H829.053ZM842.913 278.375V300.515C842.913 303.215 842.913 305.735 843.453 307.715C846.153 320.135 852.453 322.475 856.233 322.475C867.753 322.475 871.353 306.635 871.353 288.995C871.353 270.995 867.033 255.875 856.053 255.875C849.753 255.875 844.173 263.795 843.273 271.715C842.913 273.875 842.913 276.035 842.913 278.375ZM949.008 275.135V312.755C949.008 319.415 949.008 326.975 949.908 332.555H937.308L936.408 323.375H935.868C932.088 330.035 925.968 333.995 918.588 333.995C906.888 333.995 897.888 324.095 897.888 309.155C897.888 287.375 915.348 277.655 934.968 277.475V274.775C934.968 263.075 932.088 254.975 921.108 254.975C915.708 254.975 910.848 256.775 906.708 259.475L903.648 249.755C907.248 247.055 915.348 243.995 923.988 243.995C941.448 243.995 949.008 255.515 949.008 275.135ZM935.328 305.195V287.555C928.128 287.555 911.388 288.815 911.388 307.715C911.388 319.055 917.148 323.195 922.008 323.195C928.128 323.195 933.348 318.695 934.968 310.055C935.328 308.435 935.328 306.635 935.328 305.195Z" fill="white"/>
<path d="M469.788 380.962L469.228 369.362C469.028 365.802 468.828 361.842 468.948 358.802H468.788C468.188 361.802 467.468 365.002 466.628 368.162L463.308 380.802H461.348L458.188 368.682C457.308 365.242 456.508 361.922 455.988 358.802H455.868C455.868 361.962 455.708 365.722 455.548 369.562L455.028 380.962H452.268L453.868 354.002H457.188L460.348 366.322C461.268 369.882 461.948 372.522 462.508 375.602H462.628C463.148 372.522 463.748 369.962 464.628 366.322L467.668 354.002H471.108L472.668 380.962H469.788ZM487.253 368.202V376.562C487.253 378.042 487.253 379.722 487.453 380.962H484.653L484.453 378.922H484.333C483.493 380.402 482.133 381.282 480.493 381.282C477.893 381.282 475.893 379.082 475.893 375.762C475.893 370.922 479.773 368.762 484.133 368.722V368.122C484.133 365.522 483.493 363.722 481.053 363.722C479.853 363.722 478.773 364.122 477.853 364.722L477.173 362.562C477.973 361.962 479.773 361.282 481.693 361.282C485.573 361.282 487.253 363.842 487.253 368.202ZM484.213 374.882V370.962C482.613 370.962 478.893 371.242 478.893 375.442C478.893 377.962 480.173 378.882 481.253 378.882C482.613 378.882 483.773 377.882 484.133 375.962C484.213 375.602 484.213 375.202 484.213 374.882ZM491.983 380.962V366.602C491.983 364.322 491.863 363.162 491.823 361.602H494.503L494.663 363.922H494.743C495.583 362.362 497.143 361.282 499.183 361.282C501.863 361.282 503.863 363.282 503.863 367.962V380.962H500.783V368.482C500.783 366.202 500.343 363.882 498.103 363.882C496.823 363.882 495.583 364.962 495.183 367.042C495.103 367.522 495.063 368.122 495.063 368.762V380.962H491.983ZM520.194 361.602V375.682C520.194 377.842 520.314 379.522 520.354 380.962H517.674L517.474 378.922H517.394C516.794 379.882 515.314 381.282 513.234 381.282C509.834 381.282 508.514 378.642 508.514 373.842V361.602H511.594V373.402C511.594 376.442 512.074 378.682 514.194 378.682C515.994 378.682 516.794 377.002 516.954 376.122C517.074 375.602 517.114 375.002 517.114 374.362V361.602H520.194ZM525.612 358.322L528.692 357.082V361.602H532.412V363.962H528.692V375.442C528.692 377.962 529.612 378.642 530.732 378.642C531.212 378.642 531.612 378.602 531.972 378.522L532.092 380.882C531.532 381.082 530.812 381.202 529.812 381.202C528.612 381.202 527.532 380.882 526.772 380.042C526.012 379.162 525.612 377.842 525.612 375.162V363.962H523.252V361.602H525.612V358.322ZM546.336 371.562H537.336C537.376 377.482 539.696 378.762 541.936 378.762C543.256 378.762 544.376 378.442 545.136 378.002L545.616 380.282C544.536 380.882 542.896 381.202 541.376 381.202C536.736 381.202 534.336 377.402 534.336 371.482C534.336 365.202 536.976 361.282 540.856 361.282C544.816 361.282 546.376 365.442 546.376 369.842C546.376 370.562 546.376 371.082 546.336 371.562ZM537.376 369.282H543.416C543.496 365.402 542.016 363.682 540.536 363.682C538.536 363.682 537.496 366.642 537.376 369.282ZM550.107 380.962V366.602C550.107 364.322 549.987 363.162 549.947 361.602H552.627L552.787 363.922H552.867C553.707 362.362 555.267 361.282 557.307 361.282C559.987 361.282 561.987 363.282 561.987 367.962V380.962H558.907V368.482C558.907 366.202 558.467 363.882 556.227 363.882C554.947 363.882 553.707 364.962 553.307 367.042C553.227 367.522 553.187 368.122 553.187 368.762V380.962H550.107ZM575.758 378.082L576.238 380.442C575.518 380.842 574.358 381.162 573.158 381.202L572.278 382.962C573.598 383.162 574.878 384.282 574.878 385.802C574.878 388.082 572.998 388.962 571.238 388.962C570.238 388.962 569.278 388.642 568.558 388.242L569.198 386.562C569.838 386.962 570.438 387.162 571.198 387.162C571.958 387.162 572.638 386.882 572.638 385.922C572.638 384.842 571.478 384.362 569.918 384.202L571.318 381.002C567.998 380.242 565.878 377.002 565.878 371.402C565.878 365.842 568.678 361.322 573.518 361.322C574.558 361.322 575.678 361.602 576.238 361.922L575.638 364.442C575.238 364.242 574.438 363.922 573.438 363.922C570.358 363.922 568.958 367.602 568.958 371.402C568.958 375.922 570.678 378.642 573.518 378.642C574.318 378.642 575.158 378.442 575.758 378.082ZM581.589 358.762H579.989C579.989 356.882 580.789 355.242 582.429 355.242C583.269 355.242 583.829 355.642 584.389 355.962C584.949 356.282 585.429 356.642 585.949 356.642C586.549 356.642 586.909 356.322 586.989 355.162H588.509C588.509 357.122 587.789 358.522 586.069 358.522C585.309 358.522 584.629 358.122 584.109 357.802C583.549 357.442 583.029 357.122 582.549 357.122C581.949 357.122 581.669 357.682 581.589 358.762ZM589.389 368.202V376.562C589.389 378.042 589.389 379.722 589.589 380.962H586.789L586.589 378.922H586.469C585.629 380.402 584.269 381.282 582.629 381.282C580.029 381.282 578.029 379.082 578.029 375.762C578.029 370.922 581.909 368.762 586.269 368.722V368.122C586.269 365.522 585.629 363.722 583.189 363.722C581.989 363.722 580.909 364.122 579.989 364.722L579.309 362.562C580.109 361.962 581.909 361.282 583.829 361.282C587.709 361.282 589.389 363.842 589.389 368.202ZM586.349 374.882V370.962C584.749 370.962 581.029 371.242 581.029 375.442C581.029 377.962 582.309 378.882 583.389 378.882C584.749 378.882 585.909 377.882 586.269 375.962C586.349 375.602 586.349 375.202 586.349 374.882ZM599.599 381.282H599.559C596.079 381.282 593.279 378.122 593.279 371.322C593.279 364.242 596.439 361.282 599.759 361.282C603.199 361.282 605.999 364.522 605.999 371.282C605.999 378.762 602.519 381.282 599.599 381.282ZM599.639 378.842H599.679C602.319 378.842 602.839 374.282 602.839 371.282C602.839 368.322 602.319 363.762 599.599 363.762C596.839 363.762 596.319 368.322 596.319 371.282C596.319 374.482 596.879 378.842 599.639 378.842ZM616.761 380.962V354.402C618.001 354.082 619.481 353.882 621.241 353.882C623.721 353.882 625.801 354.482 627.201 355.882C628.521 357.162 629.201 359.122 629.201 361.442C629.201 363.922 628.601 365.602 627.561 366.962C626.081 368.962 623.601 369.962 621.201 369.962C620.681 369.962 620.281 369.962 619.841 369.922V380.962H616.761ZM619.841 356.602V367.322C620.201 367.402 620.521 367.442 621.041 367.442C624.081 367.442 626.121 365.442 626.121 361.642C626.121 358.882 624.961 356.402 621.561 356.402C620.841 356.402 620.241 356.482 619.841 356.602ZM632.623 380.962V366.602C632.623 364.962 632.503 363.042 632.463 361.602H635.223L635.383 364.642H635.463C636.103 362.802 637.743 361.282 639.543 361.282C639.783 361.282 639.983 361.322 640.183 361.322V364.482C639.983 364.442 639.783 364.442 639.543 364.442C637.583 364.442 636.143 366.242 635.823 368.482C635.743 369.002 635.703 369.602 635.703 370.242V380.962H632.623ZM653.598 371.562H644.598C644.638 377.482 646.958 378.762 649.198 378.762C650.518 378.762 651.638 378.442 652.398 378.002L652.878 380.282C651.798 380.882 650.158 381.202 648.638 381.202C643.998 381.202 641.598 377.402 641.598 371.482C641.598 365.202 644.238 361.282 648.118 361.282C652.078 361.282 653.638 365.442 653.638 369.842C653.638 370.562 653.638 371.082 653.598 371.562ZM644.638 369.282H650.678C650.758 365.402 649.278 363.682 647.798 363.682C645.798 363.682 644.758 366.642 644.638 369.282ZM665.969 353.282H669.009V376.322C669.009 377.642 669.129 379.842 669.169 380.962H666.529L666.329 378.522H666.209C665.569 379.922 664.209 381.282 662.169 381.282C658.889 381.282 656.529 377.722 656.529 371.362C656.529 364.482 659.369 361.282 662.369 361.282C663.769 361.282 665.129 361.962 665.889 363.602H665.969V353.282ZM665.969 374.122V368.962C665.969 368.562 665.969 368.122 665.929 367.682C665.729 365.682 664.529 363.922 663.049 363.922C660.489 363.922 659.609 367.482 659.609 371.362C659.609 375.442 660.649 378.722 662.889 378.722C663.849 378.722 665.169 378.202 665.849 375.402C665.929 375.042 665.969 374.602 665.969 374.122ZM676.826 380.962H673.746V361.602H676.826V380.962ZM675.226 358.282H675.186C674.106 358.282 673.306 357.402 673.306 356.122C673.306 354.842 674.146 353.962 675.226 353.962C676.426 353.962 677.226 354.842 677.226 356.122C677.226 357.402 676.426 358.282 675.226 358.282ZM691.73 368.202V376.562C691.73 378.042 691.73 379.722 691.93 380.962H689.13L688.93 378.922H688.81C687.97 380.402 686.61 381.282 684.97 381.282C682.37 381.282 680.37 379.082 680.37 375.762C680.37 370.922 684.25 368.762 688.61 368.722V368.122C688.61 365.522 687.97 363.722 685.53 363.722C684.33 363.722 683.25 364.122 682.33 364.722L681.65 362.562C682.45 361.962 684.25 361.282 686.17 361.282C690.05 361.282 691.73 363.842 691.73 368.202ZM688.69 374.882V370.962C687.09 370.962 683.37 371.242 683.37 375.442C683.37 377.962 684.65 378.882 685.73 378.882C687.09 378.882 688.25 377.882 688.61 375.962C688.69 375.602 688.69 375.202 688.69 374.882ZM696.46 380.962V353.282H699.54V380.962H696.46ZM704.004 378.962C704.004 377.602 704.924 376.642 706.044 376.642C707.284 376.642 708.084 377.562 708.084 378.962C708.084 380.362 707.324 381.282 706.044 381.282C704.884 381.282 704.004 380.362 704.004 378.962Z" fill="#01ACEC"/>
<defs>
<linearGradient id="paint0_linear_2410_23" x1="246.812" y1="320.95" x2="102.435" y2="243.237" gradientUnits="userSpaceOnUse">
<stop stop-color="#00AEEE"/>
<stop offset="0.999084" stop-color="#0978C8"/>
</linearGradient>
<linearGradient id="paint1_linear_2410_23" x1="251.563" y1="266.833" x2="292.538" y2="192.019" gradientUnits="userSpaceOnUse">
<stop stop-color="#0061AD"/>
<stop offset="1" stop-color="#0080D5"/>
</linearGradient>
<linearGradient id="paint2_linear_2410_23" x1="134.037" y1="358.369" x2="136.024" y2="266.373" gradientUnits="userSpaceOnUse">
<stop stop-color="#0080D5"/>
<stop offset="1" stop-color="#0061AD"/>
</linearGradient>
</defs>
</svg>
